<?xml version="1.0" encoding="UTF-8"?>
<svg width="700pt" height="700pt" version="1.1" viewBox="0 0 700 700" xmlns="http://www.w3.org/2000/svg" xmlns:xlink="http://www.w3.org/1999/xlink">
 <defs>
  <symbol id="s" overflow="visible">
   <path d="m18.766-1.125c-0.96875 0.5-1.9805 0.875-3.0312 1.125-1.043 0.25781-2.1367 0.39062-3.2812 0.39062-3.3984 0-6.0898-0.94531-8.0781-2.8438-1.9922-1.9062-2.9844-4.4844-2.9844-7.7344 0-3.2578 0.99219-5.8359 2.9844-7.7344 1.9883-1.9062 4.6797-2.8594 8.0781-2.8594 1.1445 0 2.2383 0.13281 3.2812 0.39062 1.0508 0.25 2.0625 0.625 3.0312 1.125v4.2188c-0.98047-0.65625-1.9453-1.1406-2.8906-1.4531-0.94922-0.3125-1.9492-0.46875-3-0.46875-1.875 0-3.3516 0.60547-4.4219 1.8125-1.0742 1.1992-1.6094 2.8555-1.6094 4.9688 0 2.1055 0.53516 3.7617 1.6094 4.9688 1.0703 1.1992 2.5469 1.7969 4.4219 1.7969 1.0508 0 2.0508-0.14844 3-0.45312 0.94531-0.3125 1.9102-0.80078 2.8906-1.4688z"/>
  </symbol>
  <symbol id="b" overflow="visible">
   <path d="m13.734-11.141c-0.4375-0.19531-0.87109-0.34375-1.2969-0.4375-0.41797-0.10156-0.83984-0.15625-1.2656-0.15625-1.2617 0-2.2305 0.40625-2.9062 1.2188-0.67969 0.80469-1.0156 1.9531-1.0156 3.4531v7.0625h-4.8906v-15.312h4.8906v2.5156c0.625-1 1.3438-1.7266 2.1562-2.1875 0.82031-0.46875 1.8008-0.70312 2.9375-0.70312 0.16406 0 0.34375 0.011719 0.53125 0.03125 0.19531 0.011719 0.47656 0.039062 0.84375 0.078125z"/>
  </symbol>
  <symbol id="a" overflow="visible">
   <path d="m17.641-7.7031v1.4062h-11.453c0.125 1.1484 0.53906 2.0078 1.25 2.5781 0.70703 0.57422 1.7031 0.85938 2.9844 0.85938 1.0312 0 2.082-0.14844 3.1562-0.45312 1.082-0.3125 2.1914-0.77344 3.3281-1.3906v3.7656c-1.1562 0.4375-2.3125 0.76562-3.4688 0.98438-1.1562 0.22656-2.3125 0.34375-3.4688 0.34375-2.7734 0-4.9297-0.70312-6.4688-2.1094-1.5312-1.4062-2.2969-3.3789-2.2969-5.9219 0-2.5 0.75391-4.4609 2.2656-5.8906 1.5078-1.4375 3.582-2.1562 6.2188-2.1562 2.4062 0 4.332 0.73047 5.7812 2.1875 1.4453 1.4492 2.1719 3.3828 2.1719 5.7969zm-5.0312-1.625c0-0.92578-0.27344-1.6719-0.8125-2.2344-0.54297-0.57031-1.25-0.85938-2.125-0.85938-0.94922 0-1.7188 0.26562-2.3125 0.79688s-0.96484 1.2969-1.1094 2.2969z"/>
  </symbol>
  <symbol id="j" overflow="visible">
   <path d="m9.2188-6.8906c-1.0234 0-1.793 0.17188-2.3125 0.51562-0.51172 0.34375-0.76562 0.85547-0.76562 1.5312 0 0.625 0.20703 1.1172 0.625 1.4688 0.41406 0.34375 0.98828 0.51562 1.7188 0.51562 0.92578 0 1.7031-0.32812 2.3281-0.98438 0.63281-0.66406 0.95312-1.4922 0.95312-2.4844v-0.5625zm7.4688-1.8438v8.7344h-4.9219v-2.2656c-0.65625 0.92969-1.3984 1.6055-2.2188 2.0312-0.82422 0.41406-1.8242 0.625-3 0.625-1.5859 0-2.8711-0.45703-3.8594-1.375-0.99219-0.92578-1.4844-2.1289-1.4844-3.6094 0-1.7891 0.61328-3.1016 1.8438-3.9375 1.2383-0.84375 3.1797-1.2656 5.8281-1.2656h2.8906v-0.39062c0-0.76953-0.30859-1.332-0.92188-1.6875-0.61719-0.36328-1.5703-0.54688-2.8594-0.54688-1.0547 0-2.0312 0.10547-2.9375 0.3125-0.89844 0.21094-1.7305 0.52344-2.5 0.9375v-3.7344c1.0391-0.25 2.0859-0.44141 3.1406-0.57812 1.0625-0.13281 2.125-0.20312 3.1875-0.20312 2.7578 0 4.75 0.54688 5.9688 1.6406 1.2266 1.0859 1.8438 2.8555 1.8438 5.3125z"/>
  </symbol>
  <symbol id="d" overflow="visible">
   <path d="m7.7031-19.656v4.3438h5.0469v3.5h-5.0469v6.5c0 0.71094 0.14062 1.1875 0.42188 1.4375s0.83594 0.375 1.6719 0.375h2.5156v3.5h-4.1875c-1.9375 0-3.3125-0.39844-4.125-1.2031-0.80469-0.8125-1.2031-2.1797-1.2031-4.1094v-6.5h-2.4219v-3.5h2.4219v-4.3438z"/>
  </symbol>
  <symbol id="i" overflow="visible">
   <path d="m12.766-13.078v-8.2031h4.9219v21.281h-4.9219v-2.2188c-0.66797 0.90625-1.4062 1.5703-2.2188 1.9844s-1.7578 0.625-2.8281 0.625c-1.8867 0-3.4336-0.75-4.6406-2.25-1.2109-1.5-1.8125-3.4258-1.8125-5.7812 0-2.3633 0.60156-4.2969 1.8125-5.7969 1.207-1.5 2.7539-2.25 4.6406-2.25 1.0625 0 2 0.21484 2.8125 0.64062 0.82031 0.42969 1.5664 1.0859 2.2344 1.9688zm-3.2188 9.9219c1.0391 0 1.8359-0.37891 2.3906-1.1406 0.55078-0.76953 0.82812-1.8828 0.82812-3.3438 0-1.457-0.27734-2.5664-0.82812-3.3281-0.55469-0.76953-1.3516-1.1562-2.3906-1.1562-1.043 0-1.8398 0.38672-2.3906 1.1562-0.55469 0.76172-0.82812 1.8711-0.82812 3.3281 0 1.4609 0.27344 2.5742 0.82812 3.3438 0.55078 0.76172 1.3477 1.1406 2.3906 1.1406z"/>
  </symbol>
  <symbol id="e" overflow="visible">
   <path d="m10.5-3.1562c1.0508 0 1.8516-0.37891 2.4062-1.1406 0.55078-0.76953 0.82812-1.8828 0.82812-3.3438 0-1.457-0.27734-2.5664-0.82812-3.3281-0.55469-0.76953-1.3555-1.1562-2.4062-1.1562-1.0547 0-1.8594 0.38672-2.4219 1.1562-0.55469 0.77344-0.82812 1.8828-0.82812 3.3281 0 1.4492 0.27344 2.5586 0.82812 3.3281 0.5625 0.77344 1.3672 1.1562 2.4219 1.1562zm-3.25-9.9219c0.67578-0.88281 1.4219-1.5391 2.2344-1.9688 0.82031-0.42578 1.7656-0.64062 2.8281-0.64062 1.8945 0 3.4453 0.75 4.6562 2.25 1.207 1.5 1.8125 3.4336 1.8125 5.7969 0 2.3555-0.60547 4.2812-1.8125 5.7812-1.2109 1.5-2.7617 2.25-4.6562 2.25-1.0625 0-2.0078-0.21094-2.8281-0.625-0.8125-0.42578-1.5586-1.0859-2.2344-1.9844v2.2188h-4.8906v-21.281h4.8906z"/>
  </symbol>
  <symbol id="h" overflow="visible">
   <path d="m0.34375-15.312h4.8906l4.125 10.391 3.5-10.391h4.8906l-6.4375 16.766c-0.64844 1.6953-1.4023 2.8828-2.2656 3.5625-0.86719 0.6875-2 1.0312-3.4062 1.0312h-2.8438v-3.2188h1.5312c0.83203 0 1.4375-0.13672 1.8125-0.40625 0.38281-0.26172 0.67969-0.73047 0.89062-1.4062l0.14062-0.42188z"/>
  </symbol>
  <symbol id="g" overflow="visible">
   <path d="m2.5781-20.406h5.25v7.7656h7.7656v-7.7656h5.2656v20.406h-5.2656v-8.6562h-7.7656v8.6562h-5.25z"/>
  </symbol>
  <symbol id="c" overflow="visible">
   <path d="m9.6406-12.188c-1.0859 0-1.9141 0.39062-2.4844 1.1719-0.57422 0.78125-0.85938 1.9062-0.85938 3.375s0.28516 2.5938 0.85938 3.375c0.57031 0.77344 1.3984 1.1562 2.4844 1.1562 1.0625 0 1.875-0.38281 2.4375-1.1562 0.57031-0.78125 0.85938-1.9062 0.85938-3.375s-0.28906-2.5938-0.85938-3.375c-0.5625-0.78125-1.375-1.1719-2.4375-1.1719zm0-3.5c2.6328 0 4.6914 0.71484 6.1719 2.1406 1.4766 1.418 2.2188 3.3867 2.2188 5.9062 0 2.5117-0.74219 4.4805-2.2188 5.9062-1.4805 1.418-3.5391 2.125-6.1719 2.125-2.6484 0-4.7148-0.70703-6.2031-2.125-1.4922-1.4258-2.2344-3.3945-2.2344-5.9062 0-2.5195 0.74219-4.4883 2.2344-5.9062 1.4883-1.4258 3.5547-2.1406 6.2031-2.1406z"/>
  </symbol>
  <symbol id="f" overflow="visible">
   <path d="m17.75-9.3281v9.3281h-4.9219v-7.1406c0-1.3203-0.03125-2.2344-0.09375-2.7344s-0.16797-0.86719-0.3125-1.1094c-0.1875-0.3125-0.44922-0.55469-0.78125-0.73438-0.32422-0.17578-0.69531-0.26562-1.1094-0.26562-1.0234 0-1.8242 0.39844-2.4062 1.1875-0.58594 0.78125-0.875 1.8711-0.875 3.2656v7.5312h-4.8906v-15.312h4.8906v2.2344c0.73828-0.88281 1.5195-1.5391 2.3438-1.9688 0.83203-0.42578 1.75-0.64062 2.75-0.64062 1.7695 0 3.1133 0.54688 4.0312 1.6406 0.91406 1.0859 1.375 2.6562 1.375 4.7188z"/>
  </symbol>
  <symbol id="r" overflow="visible">
   <path d="m12.422-21.281v3.2188h-2.7031c-0.6875 0-1.1719 0.125-1.4531 0.375-0.27344 0.25-0.40625 0.6875-0.40625 1.3125v1.0625h4.1875v3.5h-4.1875v11.812h-4.8906v-11.812h-2.4375v-3.5h2.4375v-1.0625c0-1.6641 0.46094-2.8984 1.3906-3.7031 0.92578-0.80078 2.3672-1.2031 4.3281-1.2031z"/>
  </symbol>
  <symbol id="q" overflow="visible">
   <path d="m16.547-12.766c0.61328-0.94531 1.3477-1.6719 2.2031-2.1719 0.85156-0.5 1.7891-0.75 2.8125-0.75 1.7578 0 3.0977 0.54688 4.0156 1.6406 0.92578 1.0859 1.3906 2.6562 1.3906 4.7188v9.3281h-4.9219v-7.9844-0.35938c0.007813-0.13281 0.015625-0.32031 0.015625-0.5625 0-1.082-0.16406-1.8633-0.48438-2.3438-0.3125-0.48828-0.82422-0.73438-1.5312-0.73438-0.92969 0-1.6484 0.38672-2.1562 1.1562-0.51172 0.76172-0.77344 1.8672-0.78125 3.3125v7.5156h-4.9219v-7.9844c0-1.6953-0.14844-2.7852-0.4375-3.2656-0.29297-0.48828-0.8125-0.73438-1.5625-0.73438-0.9375 0-1.6641 0.38672-2.1719 1.1562-0.51172 0.76172-0.76562 1.8594-0.76562 3.2969v7.5312h-4.9219v-15.312h4.9219v2.2344c0.60156-0.86328 1.2891-1.5156 2.0625-1.9531 0.78125-0.4375 1.6406-0.65625 2.5781-0.65625 1.0625 0 2 0.25781 2.8125 0.76562 0.8125 0.51172 1.4258 1.2305 1.8438 2.1562z"/>
  </symbol>
  <symbol id="p" overflow="visible">
   <path d="m17.75-9.3281v9.3281h-4.9219v-7.1094c0-1.3438-0.03125-2.2656-0.09375-2.7656s-0.16797-0.86719-0.3125-1.1094c-0.1875-0.3125-0.44922-0.55469-0.78125-0.73438-0.32422-0.17578-0.69531-0.26562-1.1094-0.26562-1.0234 0-1.8242 0.39844-2.4062 1.1875-0.58594 0.78125-0.875 1.8711-0.875 3.2656v7.5312h-4.8906v-21.281h4.8906v8.2031c0.73828-0.88281 1.5195-1.5391 2.3438-1.9688 0.83203-0.42578 1.75-0.64062 2.75-0.64062 1.7695 0 3.1133 0.54688 4.0312 1.6406 0.91406 1.0859 1.375 2.6562 1.375 4.7188z"/>
  </symbol>
  <symbol id="o" overflow="visible">
   <path d="m2.5781-20.406h5.875l7.4219 14v-14h4.9844v20.406h-5.875l-7.4219-14v14h-4.9844z"/>
  </symbol>
  <symbol id="n" overflow="visible">
   <path d="m2.1875-5.9688v-9.3438h4.9219v1.5312c0 0.83594-0.007813 1.875-0.015625 3.125-0.011719 1.25-0.015625 2.0859-0.015625 2.5 0 1.2422 0.03125 2.1328 0.09375 2.6719 0.070313 0.54297 0.17969 0.93359 0.32812 1.1719 0.20703 0.32422 0.47266 0.57422 0.79688 0.75 0.32031 0.16797 0.69141 0.25 1.1094 0.25 1.0195 0 1.8203-0.39062 2.4062-1.1719 0.58203-0.78125 0.875-1.8672 0.875-3.2656v-7.5625h4.8906v15.312h-4.8906v-2.2188c-0.74219 0.89844-1.5234 1.5586-2.3438 1.9844-0.82422 0.41406-1.7344 0.625-2.7344 0.625-1.7617 0-3.1055-0.53906-4.0312-1.625-0.92969-1.082-1.3906-2.6602-1.3906-4.7344z"/>
  </symbol>
  <symbol id="m" overflow="visible">
   <path d="m2.5781-20.406h8.7344c2.5938 0 4.582 0.57812 5.9688 1.7344 1.3945 1.1484 2.0938 2.7891 2.0938 4.9219 0 2.1367-0.69922 3.7812-2.0938 4.9375-1.3867 1.1562-3.375 1.7344-5.9688 1.7344h-3.4844v7.0781h-5.25zm5.25 3.8125v5.7031h2.9219c1.0195 0 1.8047-0.25 2.3594-0.75 0.5625-0.5 0.84375-1.2031 0.84375-2.1094 0-0.91406-0.28125-1.6172-0.84375-2.1094-0.55469-0.48828-1.3398-0.73438-2.3594-0.73438z"/>
  </symbol>
  <symbol id="l" overflow="visible">
   <path d="m2.3594-15.312h4.8906v15.031c0 2.0508-0.49609 3.6172-1.4844 4.7031-0.98047 1.082-2.4062 1.625-4.2812 1.625h-2.4219v-3.2188h0.85938c0.92578 0 1.5625-0.21094 1.9062-0.625 0.35156-0.41797 0.53125-1.2461 0.53125-2.4844zm0-5.9688h4.8906v4h-4.8906z"/>
  </symbol>
  <symbol id="k" overflow="visible">
   <path d="m14.719-14.828v3.9844c-0.65625-0.45703-1.3242-0.79688-2-1.0156-0.66797-0.21875-1.3594-0.32812-2.0781-0.32812-1.3672 0-2.4336 0.40234-3.2031 1.2031-0.76172 0.79297-1.1406 1.9062-1.1406 3.3438 0 1.4297 0.37891 2.543 1.1406 3.3438 0.76953 0.79297 1.8359 1.1875 3.2031 1.1875 0.75781 0 1.4844-0.10938 2.1719-0.32812 0.6875-0.22656 1.3203-0.56641 1.9062-1.0156v4c-0.76172 0.28125-1.5391 0.48828-2.3281 0.625-0.78125 0.14453-1.5742 0.21875-2.375 0.21875-2.7617 0-4.9219-0.70703-6.4844-2.125-1.5547-1.4141-2.3281-3.3828-2.3281-5.9062 0-2.5312 0.77344-4.5039 2.3281-5.9219 1.5625-1.4141 3.7227-2.125 6.4844-2.125 0.80078 0 1.5938 0.074219 2.375 0.21875 0.78125 0.13672 1.5547 0.35156 2.3281 0.64062z"/>
  </symbol>
 </defs>
 <g>
  <path d="m404.78 194.36c-5.1406-4.0977-12.445-4.0703-17.555 0.070313l-39.09 31.32h0.003906c-6.8008-3.5547-13.898-6.5078-21.211-8.8242l-5.5547-49.781v-0.003907c-0.69141-6.5312-5.8281-11.703-12.355-12.441-14.469-1.6406-29.074-1.6406-43.539 0-6.5234 0.74609-11.656 5.9141-12.355 12.441l-5.5547 49.781v0.003907c-7.3125 2.3164-14.41 5.2695-21.207 8.8242l-39.082-31.32h-0.003906c-5.1172-4.1445-12.43-4.1719-17.574-0.058594-11.414 9.0703-21.754 19.414-30.824 30.828-4.1055 5.1445-4.082 12.453 0.058594 17.57l31.32 39.086c-3.5547 6.7969-6.5078 13.895-8.8203 21.207l-49.797 5.5547c-6.5234 0.70312-11.688 5.8359-12.426 12.355-1.6562 14.461-1.6562 29.062-0.003906 43.527 0.73437 6.5273 5.9062 11.668 12.438 12.367l49.789 5.5508c2.3164 7.3164 5.2656 14.414 8.8203 21.215l-31.309 39.074c-4.0938 5.1367-4.1211 12.41-0.066407 17.578 9.0664 11.41 19.406 21.754 30.816 30.82 5.1406 4.1172 12.461 4.0977 17.574-0.054687l39.09-31.312c6.7969 3.5508 13.895 6.5039 21.207 8.8203l5.5586 49.805c0.70312 6.5195 5.8359 11.68 12.352 12.418 14.469 1.6562 29.074 1.6562 43.543 0 6.5234-0.73828 11.656-5.9062 12.352-12.438l5.5547-49.789 0.003906 0.003906c7.3125-2.3164 14.406-5.2695 21.207-8.8203l39.082 31.312c5.1172 4.1484 12.43 4.1719 17.574 0.058593 11.41-9.0625 21.746-19.402 30.816-30.809 4.0586-5.1641 4.0352-12.441-0.050781-17.582l-31.32-39.086c3.5547-6.8008 6.5078-13.898 8.8242-21.215l49.801-5.5508c6.5234-0.70312 11.684-5.8398 12.422-12.359 1.6523-14.465 1.6523-29.07 0-43.535-0.74219-6.5195-5.9102-11.652-12.434-12.355l-49.789-5.5547c-2.3164-7.3125-5.2695-14.41-8.8242-21.207l31.32-39.09h0.003906c4.1406-5.1211 4.1641-12.43 0.054688-17.574-9.0742-11.414-19.422-21.758-30.84-30.832zm-18.82 78.074c-3.5977 4.4688-4.0977 10.684-1.2617 15.672 4.3359 7.6875 7.7383 15.863 10.137 24.359 1.5156 5.5234 6.2539 9.5586 11.949 10.18l48.965 5.4648c0.41406 4.8242 0.625 9.7305 0.625 14.633 0 4.9062-0.21094 9.8047-0.625 14.629l-48.969 5.4648h-0.003906c-5.6836 0.63281-10.414 4.6641-11.941 10.176-2.3945 8.4961-5.7969 16.676-10.129 24.363-2.8438 4.9883-2.3438 11.207 1.2539 15.68l30.805 38.445c-6.3125 7.5-13.258 14.441-20.754 20.754l-38.441-30.793c-4.4688-3.6094-10.691-4.1094-15.68-1.2656-7.6914 4.3359-15.867 7.7344-24.363 10.129-5.5195 1.5273-9.5508 6.2617-10.18 11.957l-5.4648 48.961c-9.7383 0.82031-19.527 0.82031-29.262 0l-5.4648-48.949v-0.003906c-0.61719-5.6953-4.6523-10.438-10.18-11.957-8.4922-2.4023-16.668-5.8047-24.359-10.137-4.9844-2.8438-11.207-2.3438-15.676 1.2578l-38.449 30.801c-7.5-6.3125-14.441-13.254-20.754-20.754l30.812-38.457c3.5898-4.4688 4.082-10.676 1.25-15.66-4.3359-7.6914-7.7383-15.867-10.137-24.363-1.5234-5.5195-6.2578-9.5547-11.945-10.184l-48.965-5.4648c-0.41406-4.8164-0.625-9.7188-0.625-14.629s0.21094-9.8125 0.625-14.633l48.934-5.4648c5.7031-0.60938 10.453-4.6445 11.977-10.176 2.3984-8.4922 5.7969-16.668 10.129-24.359 2.8398-4.9883 2.3438-11.203-1.2461-15.676l-30.812-38.445c6.3125-7.5039 13.258-14.445 20.758-20.762l38.449 30.805h-0.003906c4.4727 3.6016 10.688 4.0977 15.676 1.2578 7.6875-4.332 15.863-7.7344 24.355-10.133 5.5234-1.5195 9.5586-6.2539 10.188-11.949l5.4648-48.961h-0.003906c9.7383-0.83203 19.527-0.83203 29.266 0l5.4648 48.973c0.63281 5.6836 4.6602 10.41 10.176 11.934 8.4922 2.3984 16.672 5.8008 24.359 10.137 4.9883 2.8359 11.203 2.3359 15.676-1.2578l38.449-30.805h0.003907c7.4961 6.3125 14.441 13.258 20.754 20.754zm-98.711-4.168c-19.754 0-38.695 7.8477-52.664 21.812-13.969 13.969-21.812 32.914-21.812 52.664 0 19.754 7.8438 38.699 21.812 52.668 13.969 13.965 32.91 21.812 52.664 21.812s38.699-7.8477 52.664-21.812c13.969-13.969 21.816-32.914 21.816-52.668-0.023438-19.746-7.875-38.676-21.84-52.641-13.961-13.961-32.895-21.816-52.641-21.836zm0 128.8c-14.406 0-28.223-5.7266-38.41-15.91-10.188-10.188-15.91-24.004-15.91-38.414 0-14.406 5.7227-28.223 15.91-38.41s24.004-15.91 38.41-15.91 28.223 5.7227 38.41 15.91 15.91 24.004 15.91 38.41c-0.015624 14.402-5.7422 28.211-15.926 38.395-10.184 10.184-23.992 15.91-38.395 15.93zm314.22-273.5c1.7305 5.8789-0.97656 12.156-6.4453 14.93l-29.496 16.238h0.003906c0.31641 4.3789 0.32812 8.7773 0.03125 13.164l29.668 16.328c5.1797 2.9062 7.7617 8.9297 6.293 14.684-2.9375 10.277-7.0234 20.191-12.188 29.547-3.0039 5.2617-9.2266 7.7734-15.039 6.0664l-32.488-9.3477h0.003906c-2.8945 3.2891-6.0039 6.3789-9.3125 9.2461l9.4727 32.598 0.003907 0.003906c1.6875 5.75-0.80469 11.91-6.0156 14.867-9.3477 5.1836-19.258 9.2773-29.539 12.207-1.1562 0.36719-2.3633 0.55469-3.5742 0.55469-4.7734-0.054688-9.1328-2.7305-11.336-6.9648l-16.258-29.535c-6.0312 0.4375-12.09 0.29688-18.094-0.42578l2.4336-20.016c6.0312 0.71094 12.125 0.69141 18.148-0.054688 5.2227-0.61328 10.301 1.9844 12.863 6.5781l15.824 28.754c4.9727-1.6836 9.832-3.6875 14.543-6.0039l-9.1641-31.523c-1.457-5.0078 0.25391-10.398 4.3281-13.652 4.8242-3.7773 9.1875-8.1133 12.996-12.914 3.293-4.2109 8.8555-5.9336 13.957-4.3242l31.285 8.9961c1.1172-2.2852 2.2031-4.6797 3.2109-7.1133 1.0352-2.5273 1.9609-4.9805 2.7852-7.3945l-28.742-15.816c-4.6914-2.6016-7.2852-7.8359-6.5078-13.141 0.69141-5.9336 0.66016-11.93-0.089844-17.855-0.60156-5.207 1.9766-10.27 6.543-12.84l28.785-15.848v-0.003906c-1.6797-4.9727-3.6875-9.8281-6.0039-14.539l-31.516 9.1641c-5.0117 1.4531-10.41-0.25781-13.668-4.3359-3.7734-4.8242-8.1055-9.1836-12.906-12.988-4.1992-3.293-5.9219-8.8398-4.3281-13.934l9-31.305c-2.2852-1.1211-4.6875-2.2031-7.1133-3.2109-2.5234-1.0352-4.9727-1.957-7.3906-2.7773l-15.816 28.734c-2.5898 4.6992-7.832 7.293-13.145 6.5-5.9336-0.6875-11.93-0.65625-17.859 0.09375-5.2109 0.61328-10.277-1.9727-12.84-6.5508l-15.844-28.777c-4.9727 1.6797-9.8281 3.6875-14.539 6.0039l9.1641 31.523c1.4492 5-0.25 10.383-4.3125 13.641-4.832 3.7773-9.1992 8.1133-13.012 12.922-3.2812 4.1953-8.8203 5.9258-13.906 4.3477l-31.332-9.0117c-1.1172 2.2812-2.2031 4.6797-3.2109 7.1133-1.0312 2.5195-1.9531 4.9727-2.7773 7.3867l28.738 15.816h-0.007813c4.6758 2.6055 7.2617 7.8164 6.5078 13.113-0.69141 5.9453-0.66016 11.949 0.089844 17.883l-20.004 2.4844c-0.75391-6.0156-0.92969-12.086-0.52734-18.133l-29.672-16.328 0.003907-0.003906c-5.1797-2.9023-7.7617-8.9258-6.293-14.676 2.9336-10.281 7.0195-20.195 12.188-29.555 3.0078-5.2734 9.2539-7.7812 15.074-6.0469l32.449 9.3359v-0.003907c2.8906-3.2891 6.0039-6.375 9.3125-9.2461l-9.4766-32.605c-1.6836-5.75 0.80469-11.902 6.0156-14.863 9.3477-5.1836 19.258-9.2812 29.543-12.207 5.8672-1.7188 12.133 0.98047 14.914 6.4258l16.246 29.516c4.3828-0.31641 8.7852-0.32422 13.168-0.03125l16.328-29.668c2.8984-5.1992 8.9453-7.7812 14.703-6.2852 10.27 2.9297 20.176 7.0156 29.52 12.18 5.2812 2.9961 7.793 9.2422 6.0625 15.059l-9.3359 32.461-0.003907 0.003906c3.2891 2.8906 6.3789 6 9.25 9.3086l32.598-9.4727c5.7539-1.6914 11.91 0.80078 14.871 6.0156 5.1836 9.3438 9.2812 19.254 12.203 29.535zm-150.57 80.676c13.348 5.5273 28.508 4.5352 41.02-2.6914 12.508-7.2227 20.949-19.852 22.836-34.176 1.8828-14.324-3-28.707-13.215-38.926-10.215-10.215-24.602-15.098-38.922-13.211-14.324 1.8867-26.957 10.324-34.18 22.836s-8.2188 27.672-2.6875 41.016c4.6914 11.406 13.746 20.461 25.148 25.152zm-6.5234-53.004c3.1289-7.5547 9.5977-13.223 17.496-15.34 7.9023-2.1172 16.336-0.4375 22.824 4.5391 6.4883 4.9805 10.293 12.695 10.293 20.871 0 8.1797-3.8047 15.895-10.293 20.871-6.4883 4.9805-14.922 6.6562-22.824 4.543-7.8984-2.1172-14.367-7.7852-17.496-15.344-2.6953-6.4414-2.6953-13.695 0-20.141z"/>
  <use x="70" y="644" xlink:href="#s"/>
  <use x="90.550781" y="644" xlink:href="#b"/>
  <use x="104.359375" y="644" xlink:href="#a"/>
  <use x="123.347656" y="644" xlink:href="#j"/>
  <use x="142.242188" y="644" xlink:href="#d"/>
  <use x="155.628906" y="644" xlink:href="#a"/>
  <use x="174.617188" y="644" xlink:href="#i"/>
  <use x="204.410156" y="644" xlink:href="#e"/>
  <use x="224.453125" y="644" xlink:href="#h"/>
  <use x="252.453125" y="644" xlink:href="#g"/>
  <use x="275.882812" y="644" xlink:href="#b"/>
  <use x="289.695312" y="644" xlink:href="#e"/>
  <use x="309.734375" y="644" xlink:href="#c"/>
  <use x="328.972656" y="644" xlink:href="#f"/>
  <use x="70" y="672" xlink:href="#r"/>
  <use x="82.183594" y="672" xlink:href="#b"/>
  <use x="95.992188" y="672" xlink:href="#c"/>
  <use x="115.226562" y="672" xlink:href="#q"/>
  <use x="154.152344" y="672" xlink:href="#d"/>
  <use x="167.535156" y="672" xlink:href="#p"/>
  <use x="187.46875" y="672" xlink:href="#a"/>
  <use x="216.207031" y="672" xlink:href="#o"/>
  <use x="239.640625" y="672" xlink:href="#c"/>
  <use x="258.878906" y="672" xlink:href="#n"/>
  <use x="278.8125" y="672" xlink:href="#f"/>
  <use x="308.492188" y="672" xlink:href="#m"/>
  <use x="329.015625" y="672" xlink:href="#b"/>
  <use x="342.820312" y="672" xlink:href="#c"/>
  <use x="362.058594" y="672" xlink:href="#l"/>
  <use x="371.65625" y="672" xlink:href="#a"/>
  <use x="390.648438" y="672" xlink:href="#k"/>
  <use x="407.242188" y="672" xlink:href="#d"/>
 </g>
</svg>
