<?xml version="1.0" encoding="UTF-8"?>
<svg width="700pt" height="700pt" version="1.1" viewBox="0 0 700 700" xmlns="http://www.w3.org/2000/svg" xmlns:xlink="http://www.w3.org/1999/xlink">
 <defs>
  <symbol id="m" overflow="visible">
   <path d="m36.578-2.1875c-1.8867 0.98047-3.8516 1.7148-5.8906 2.2031-2.043 0.5-4.1719 0.75-6.3906 0.75-6.6367 0-11.891-1.8477-15.766-5.5469-3.875-3.707-5.8125-8.7344-5.8125-15.078 0-6.3633 1.9375-11.398 5.8125-15.109 3.875-3.707 9.1289-5.5625 15.766-5.5625 2.2188 0 4.3477 0.25 6.3906 0.75 2.0391 0.5 4.0039 1.2344 5.8906 2.2031v8.25c-1.8984-1.3008-3.7734-2.2539-5.625-2.8594-1.8438-0.60156-3.7891-0.90625-5.8281-0.90625-3.668 0-6.5547 1.1797-8.6562 3.5312-2.0938 2.3438-3.1406 5.5781-3.1406 9.7031 0 4.1055 1.0469 7.3281 3.1406 9.6719 2.1016 2.3438 4.9883 3.5156 8.6562 3.5156 2.0391 0 3.9844-0.30078 5.8281-0.90625 1.8516-0.60156 3.7266-1.5508 5.625-2.8438z"/>
  </symbol>
  <symbol id="d" overflow="visible">
   <path d="m26.766-21.734c-0.83594-0.38281-1.668-0.67188-2.5-0.85938-0.82422-0.1875-1.6523-0.28125-2.4844-0.28125-2.4492 0-4.3398 0.78906-5.6719 2.3594-1.3242 1.5742-1.9844 3.8242-1.9844 6.75v13.766h-9.5312v-29.859h9.5312v4.9062c1.2266-1.957 2.6406-3.3828 4.2344-4.2812 1.5938-0.89453 3.5-1.3438 5.7188-1.3438 0.32031 0 0.66406 0.015625 1.0312 0.046875 0.375 0.023438 0.92188 0.074219 1.6406 0.15625z"/>
  </symbol>
  <symbol id="c" overflow="visible">
   <path d="m34.391-15.016v2.7188h-22.312c0.22656 2.2422 1.0352 3.9219 2.4219 5.0469 1.3828 1.1172 3.3203 1.6719 5.8125 1.6719 2.0078 0 4.0664-0.29688 6.1719-0.89062 2.1133-0.59375 4.2812-1.4922 6.5-2.7031v7.3594c-2.2617 0.85547-4.5234 1.4961-6.7812 1.9219-2.25 0.4375-4.5078 0.65625-6.7656 0.65625-5.4062 0-9.6094-1.3672-12.609-4.1094-2.9922-2.75-4.4844-6.6016-4.4844-11.562 0-4.875 1.4688-8.7031 4.4062-11.484 2.9453-2.7891 7-4.1875 12.156-4.1875 4.6875 0 8.4375 1.4141 11.25 4.2344 2.8203 2.8242 4.2344 6.6016 4.2344 11.328zm-9.8125-3.1719c0-1.8125-0.53125-3.2695-1.5938-4.375-1.0547-1.1133-2.4297-1.6719-4.125-1.6719-1.8555 0-3.3594 0.52344-4.5156 1.5625-1.1562 1.0312-1.875 2.5273-2.1562 4.4844z"/>
  </symbol>
  <symbol id="b" overflow="visible">
   <path d="m17.969-13.438c-1.9922 0-3.4922 0.33984-4.5 1.0156-1 0.67969-1.5 1.6719-1.5 2.9844 0 1.2109 0.40625 2.1562 1.2188 2.8438 0.8125 0.67969 1.9375 1.0156 3.375 1.0156 1.7891 0 3.3008-0.64062 4.5312-1.9219 1.2266-1.2891 1.8438-2.9062 1.8438-4.8438v-1.0938zm14.594-3.5938v17.031h-9.625v-4.4219c-1.2812 1.8125-2.7266 3.1328-4.3281 3.9531-1.5938 0.82031-3.543 1.2344-5.8438 1.2344-3.0938 0-5.6055-0.89844-7.5312-2.7031-1.9297-1.8008-2.8906-4.1406-2.8906-7.0156 0-3.5078 1.2031-6.082 3.6094-7.7188 2.4141-1.6328 6.2031-2.4531 11.359-2.4531h5.625v-0.73438c0-1.5078-0.60156-2.6133-1.7969-3.3125-1.1875-0.70703-3.043-1.0625-5.5625-1.0625-2.0547 0-3.9609 0.20312-5.7188 0.60938-1.7617 0.40625-3.3984 1.0234-4.9062 1.8438v-7.2812c2.0508-0.5 4.1094-0.875 6.1719-1.125 2.0625-0.25781 4.125-0.39062 6.1875-0.39062 5.3828 0 9.2695 1.0625 11.656 3.1875 2.3945 2.1172 3.5938 5.5703 3.5938 10.359z"/>
  </symbol>
  <symbol id="h" overflow="visible">
   <path d="m15.016-38.344v8.4844h9.8281v6.8281h-9.8281v12.656c0 1.3867 0.27344 2.3242 0.82812 2.8125 0.55078 0.49219 1.6445 0.73438 3.2812 0.73438h4.9062v6.8281h-8.1875c-3.7734 0-6.4453-0.78516-8.0156-2.3594-1.5742-1.5703-2.3594-4.2422-2.3594-8.0156v-12.656h-4.75v-6.8281h4.75v-8.4844z"/>
  </symbol>
  <symbol id="a" overflow="visible">
   <path d="m24.906-25.484v-16h9.5938v41.484h-9.5938v-4.3125c-1.3125 1.75-2.7617 3.0391-4.3438 3.8594-1.5859 0.8125-3.418 1.2188-5.5 1.2188-3.6797 0-6.6992-1.457-9.0625-4.375-2.3672-2.9258-3.5469-6.6914-3.5469-11.297 0-4.6016 1.1797-8.3633 3.5469-11.281 2.3633-2.9258 5.3828-4.3906 9.0625-4.3906 2.0625 0 3.8906 0.41406 5.4844 1.2344 1.5938 0.82422 3.0469 2.1094 4.3594 3.8594zm-6.2969 19.328c2.0391 0 3.5977-0.74219 4.6719-2.2344 1.082-1.5 1.625-3.6719 1.625-6.5156s-0.54297-5.0078-1.625-6.5c-1.0742-1.5-2.6328-2.25-4.6719-2.25-2.0234 0-3.5742 0.75-4.6562 2.25-1.0742 1.4922-1.6094 3.6562-1.6094 6.5s0.53516 5.0156 1.6094 6.5156c1.082 1.4922 2.6328 2.2344 4.6562 2.2344z"/>
  </symbol>
  <symbol id="g" overflow="visible">
   <path d="m20.484-6.1562c2.0391 0 3.5977-0.74219 4.6719-2.2344 1.0703-1.5 1.6094-3.6719 1.6094-6.5156s-0.53906-5.0078-1.6094-6.5c-1.0742-1.5-2.6328-2.25-4.6719-2.25-2.0547 0-3.625 0.75781-4.7188 2.2656-1.0938 1.5-1.6406 3.6641-1.6406 6.4844 0 2.8242 0.54688 4.9922 1.6406 6.5 1.0938 1.5 2.6641 2.25 4.7188 2.25zm-6.3594-19.328c1.3203-1.75 2.7812-3.0352 4.375-3.8594 1.6016-0.82031 3.4453-1.2344 5.5312-1.2344 3.6758 0 6.6953 1.4648 9.0625 4.3906 2.3633 2.918 3.5469 6.6797 3.5469 11.281 0 4.6055-1.1836 8.3711-3.5469 11.297-2.3672 2.918-5.3867 4.375-9.0625 4.375-2.0859 0-3.9297-0.41406-5.5312-1.2344-1.5938-0.82031-3.0547-2.1016-4.375-3.8438v4.3125h-9.5312v-41.484h9.5312z"/>
  </symbol>
  <symbol id="f" overflow="visible">
   <path d="m0.67188-29.859h9.5469l8.0156 20.266 6.8281-20.266h9.5469l-12.562 32.688c-1.2617 3.3203-2.7305 5.6445-4.4062 6.9688-1.6797 1.3203-3.8984 1.9844-6.6562 1.9844h-5.5156v-6.2656h2.9844c1.6133 0 2.7891-0.26172 3.5312-0.78125 0.73828-0.51172 1.3125-1.4336 1.7188-2.7656l0.26562-0.82812z"/>
  </symbol>
  <symbol id="e" overflow="visible">
   <path d="m19.594-22.156c2.1562 0 3.6953-0.39844 4.625-1.2031 0.9375-0.80078 1.4062-2.1172 1.4062-3.9531 0-1.8125-0.46875-3.1094-1.4062-3.8906-0.92969-0.78125-2.4688-1.1719-4.625-1.1719h-4.3125v10.219zm-4.3125 7.0938v15.062h-10.266v-39.812h15.672c5.25 0 9.0938 0.88281 11.531 2.6406 2.4453 1.7617 3.6719 4.543 3.6719 8.3438 0 2.6367-0.63672 4.7969-1.9062 6.4844-1.2734 1.6875-3.1875 2.9336-5.75 3.7344 1.4062 0.32422 2.6602 1.0469 3.7656 2.1719 1.1133 1.125 2.2422 2.8359 3.3906 5.125l5.5625 11.312h-10.922l-4.8594-9.8906c-0.98047-1.9883-1.9766-3.3477-2.9844-4.0781-1-0.72656-2.3359-1.0938-4-1.0938z"/>
  </symbol>
  <symbol id="l" overflow="visible">
   <path d="m4.5938-29.859h9.5312v29.859h-9.5312zm0-11.625h9.5312v7.7812h-9.5312z"/>
  </symbol>
  <symbol id="k" overflow="visible">
   <path d="m28.719-28.938v7.7969c-1.3047-0.89453-2.6055-1.5547-3.9062-1.9844-1.3047-0.42578-2.6562-0.64062-4.0625-0.64062-2.668 0-4.7461 0.78125-6.2344 2.3438-1.4805 1.5547-2.2188 3.7266-2.2188 6.5156 0 2.793 0.73828 4.9688 2.2188 6.5312 1.4883 1.5547 3.5664 2.3281 6.2344 2.3281 1.4883 0 2.9062-0.22266 4.25-0.67188 1.3438-0.44531 2.582-1.1016 3.7188-1.9688v7.8125c-1.4922 0.55469-3.0078 0.96094-4.5469 1.2344-1.543 0.26953-3.0859 0.40625-4.625 0.40625-5.3867 0-9.6016-1.3789-12.641-4.1406-3.043-2.7578-4.5625-6.6016-4.5625-11.531 0-4.9258 1.5195-8.7695 4.5625-11.531 3.0391-2.7578 7.2539-4.1406 12.641-4.1406 1.5625 0 3.1016 0.13672 4.625 0.40625 1.5195 0.27344 3.0352 0.68359 4.5469 1.2344z"/>
  </symbol>
  <symbol id="j" overflow="visible">
   <path d="m18.797-23.766c-2.1172 0-3.7305 0.76172-4.8438 2.2812-1.1055 1.5234-1.6562 3.7148-1.6562 6.5781 0 2.8672 0.55078 5.0586 1.6562 6.5781 1.1133 1.5234 2.7266 2.2812 4.8438 2.2812 2.082 0 3.6719-0.75781 4.7656-2.2812 1.1016-1.5195 1.6562-3.7109 1.6562-6.5781 0-2.8633-0.55469-5.0547-1.6562-6.5781-1.0938-1.5195-2.6836-2.2812-4.7656-2.2812zm0-6.8125c5.1328 0 9.1445 1.3867 12.031 4.1562 2.8945 2.7734 4.3438 6.6094 4.3438 11.516s-1.4492 8.7461-4.3438 11.516c-2.8867 2.7734-6.8984 4.1562-12.031 4.1562-5.1562 0-9.1875-1.3828-12.094-4.1562-2.9062-2.7695-4.3594-6.6094-4.3594-11.516s1.4531-8.7422 4.3594-11.516c2.9062-2.7695 6.9375-4.1562 12.094-4.1562z"/>
  </symbol>
  <symbol id="i" overflow="visible">
   <path d="m5.0156-39.812h10.266v35.953c0 4.957-1.3516 8.6602-4.0469 11.109-2.6875 2.457-6.7617 3.6875-12.219 3.6875h-2.0781v-7.7656h1.5938c2.1328 0 3.75-0.60156 4.8438-1.7969 1.0938-1.1875 1.6406-2.9297 1.6406-5.2344z"/>
  </symbol>
 </defs>
 <g>
  <path d="m108.98 223.98h71.527l61.699 40.734h0.003906c1.6953 1.0977 3.6602 1.7031 5.6797 1.7461 1.7461 0.007813 3.4688-0.40234 5.0234-1.1992 3.3984-1.9102 5.5234-5.4922 5.5703-9.3906v-31.891h33.746-0.003906c10.359 0.03125 20.305-4.0625 27.637-11.379 7.3359-7.3125 11.457-17.246 11.457-27.605v-146.01c0-10.355-4.1211-20.289-11.457-27.605-7.332-7.3125-17.277-11.406-27.637-11.379h-183.25c-10.34 0-20.254 4.1094-27.566 11.418-7.3086 7.3125-11.418 17.227-11.418 27.566v146.01c0 10.34 4.1094 20.258 11.418 27.566 7.3125 7.3125 17.227 11.418 27.566 11.418zm-17.906-184.99c-0.03125-4.7578 1.8477-9.3281 5.2109-12.695 3.3672-3.3633 7.9375-5.2422 12.695-5.2109h183.25c4.7695-0.03125 9.3516 1.8438 12.734 5.207 3.3828 3.3594 5.2852 7.9336 5.2852 12.699v146.01c0 4.7773-1.8984 9.3633-5.2773 12.742s-7.9648 5.2773-12.742 5.2773h-33.742c-5.582-0.03125-10.941 2.168-14.898 6.1016-3.957 3.9336-6.1797 9.2852-6.1797 14.863v12.34l-45.32-29.922c-3.4648-2.1914-7.4766-3.3633-11.574-3.3828h-71.531c-4.7656 0-9.3398-1.9023-12.699-5.2852-3.3633-3.3828-5.2383-7.9648-5.207-12.734z"/>
  <path d="m135.52 185.65h117.39c5.9375 0 11.633-2.3594 15.828-6.5586 4.1992-4.1992 6.5586-9.8906 6.5586-15.828v-49.035c0-5.9375-2.3594-11.629-6.5586-15.828-4.1953-4.1992-9.8906-6.5586-15.828-6.5586h-14.961v-18.672c0-9.832-3.875-19.266-10.785-26.258-6.9102-6.9922-16.297-10.977-26.125-11.09-5.0391-0.089843-9.9023 1.8516-13.496 5.3828s-5.6172 8.3594-5.6172 13.398v24.027l-13.105 13.211h-33.305c-2.4805 0-4.8594 0.99219-6.6016 2.7578-1.7461 1.7656-2.7109 4.1523-2.6797 6.6367v74.586c-0.12109 2.5469 0.80078 5.0312 2.5508 6.8828 1.75 1.8555 4.1797 2.918 6.7305 2.9453zm46.629-80.156 15.945-15.945c1.7305-1.7422 2.7109-4.0938 2.7305-6.5508v-28.395c4.8945 0.058594 9.5703 2.0352 13.023 5.5078 3.4531 3.4727 5.4023 8.1602 5.4297 13.059v18.672h-9.2812v18.676h42.918c0.98438 0 1.9297 0.39062 2.625 1.0859 0.69531 0.69531 1.0859 1.6406 1.0859 2.625v48.598c0 0.98438-0.39062 1.9297-1.0859 2.625-0.69531 0.69531-1.6406 1.0859-2.625 1.0859h-70.984zm-37.238 5.4609h18.566v56.023l-18.785-0.003906z"/>
  <path d="m550.5 120.12c-11.25-2.1523-22.875 0.85156-31.672 8.1914l-9.7188 8.082-9.8281-8.082c-8.793-7.3398-20.418-10.344-31.668-8.1914-11.832 2.4062-21.965 9.9766-27.629 20.641-5.1602 9.2734-6.8906 20.062-4.8945 30.484s7.5938 19.809 15.816 26.52l52.309 41.062v-0.003906c3.2656 2.3359 7.6523 2.3359 10.918 0l52.418-41.062v0.003906c8.2031-6.7227 13.789-16.109 15.785-26.523 1.9961-10.418 0.27344-21.203-4.8633-30.48-5.5-10.527-15.375-18.086-26.973-20.641zm5.1328 62.902-46.957 36.473-46.633-36.473c-4.7031-3.9961-7.8828-9.4922-8.9961-15.562-1.1172-6.0703-0.097656-12.34 2.8828-17.746 3.0703-5.6289 8.4609-9.6211 14.742-10.922 1.2305-0.15625 2.4805-0.15625 3.7109 0 4.5977 0.10156 9.0273 1.7578 12.559 4.6992l15.727 12.887v-0.003906c3.4609 2.8359 8.4414 2.8359 11.902 0l15.727-12.887v0.003906c4.4844-3.8398 10.465-5.4453 16.27-4.3711 6.2812 1.3008 11.672 5.293 14.742 10.922 2.9141 5.3672 3.8984 11.57 2.7852 17.574s-4.2539 11.441-8.8984 15.406z"/>
  <path d="m351.2 495.79c-4.6367 0-9.082 1.8398-12.355 5.1172-3.2773 3.2773-5.1172 7.7188-5.1172 12.355 0 4.6328 1.8398 9.0781 5.1172 12.355 3.2734 3.2734 7.7188 5.1172 12.355 5.1172 4.6328 0 9.0781-1.8438 12.352-5.1172 3.2773-3.2773 5.1211-7.7227 5.1211-12.355-0.03125-4.625-1.8789-9.0547-5.1523-12.324-3.2695-3.2695-7.6953-5.1211-12.32-5.1484z"/>
  <path d="m152.78 451.02h-29.922c-4.7578 1.2891-8.0586 5.6094-8.0586 10.535 0 4.9297 3.3008 9.2461 8.0586 10.539h29.922c4.7539-1.293 8.0547-5.6094 8.0547-10.539 0-4.9258-3.3008-9.2461-8.0547-10.535z"/>
  <path d="m278.8 451.02h-83.867c-4.7539 1.2891-8.0547 5.6094-8.0547 10.535 0 4.9297 3.3008 9.2461 8.0547 10.539h83.867c4.7578-1.293 8.0586-5.6094 8.0586-10.539 0-4.9258-3.3008-9.2461-8.0586-10.535z"/>
  <path d="m122.86 429.61h81.141-0.003906c3.3008 0.96484 6.8633 0.31641 9.6133-1.7461s4.3672-5.3008 4.3672-8.7383-1.6172-6.6719-4.3672-8.7344-6.3125-2.7109-9.6133-1.7461h-81.137c-3.3008-0.96484-6.8594-0.31641-9.6094 1.7461s-4.3711 5.2969-4.3711 8.7344 1.6211 6.6758 4.3711 8.7383 6.3086 2.7109 9.6094 1.7461z"/>
  <path d="m278.8 408.64h-32.762 0.003906c-3.3008-0.96484-6.8633-0.31641-9.6133 1.7461s-4.3672 5.2969-4.3672 8.7344 1.6172 6.6758 4.3672 8.7383 6.3125 2.7109 9.6133 1.7461h32.762-0.003906c3.3008 0.96484 6.8633 0.31641 9.6133-1.7461s4.3672-5.3008 4.3672-8.7383-1.6172-6.6719-4.3672-8.7344-6.3125-2.7109-9.6133-1.7461z"/>
  <path d="m590.91 74.805h-90.859c-2.7383-10.637-8.9102-20.074-17.559-26.844-8.6484-6.7734-19.289-10.504-30.273-10.613h-99.375v1.6367 19.332h99.375c5.4648 0.003906 10.812 1.5547 15.434 4.4727 4.6172 2.918 8.3164 7.082 10.668 12.016h-52.855c-12.895 0-24.957 6.3789-32.215 17.035h-40.844v21.078h34.289v129.73c-0.027344 10.359 4.0664 20.301 11.383 27.637 7.3125 7.3359 17.246 11.457 27.605 11.457h1.3086v31.891c0.0625 3.8359 2.1367 7.3633 5.4609 9.2812 1.543 0.83203 3.2734 1.2461 5.0234 1.1992 2.043 0.007812 4.0508-0.55859 5.7891-1.6367l37.566-24.898v56.348c0.03125 0.61719-0.19922 1.2227-0.63672 1.6562-0.4375 0.4375-1.0391 0.67187-1.6562 0.64062-0.42578 0.15625-0.89062 0.15625-1.3125 0l-10.922-10.922c-8.3945-8.4141-19.781-13.168-31.668-13.215-10.438-0.074219-20.512 3.832-28.176 10.922-8.2891 7.8008-13.059 18.629-13.223 30.008-0.16797 11.383 4.2891 22.344 12.352 30.383l46.629 46.41c-4.2539 4.5898-7.9219 9.6875-10.922 15.18h-109.97v-59.406c0-10.371-4.1172-20.312-11.449-27.645-7.332-7.332-17.277-11.453-27.645-11.453h-33.742v-31.887c-0.085937-3.8594-2.2031-7.3906-5.5703-9.2812-1.5547-0.79687-3.2773-1.207-5.0234-1.2031-2.0273-0.007813-4.0078 0.60156-5.6797 1.75l-20.531 13.434v-62.906l-20.637-14.305v90.75l-20.094 13.215h-71.969c-10.426 0.027343-20.406 4.2188-27.727 11.641-7.3203 7.4258-11.375 17.465-11.258 27.891v69.562c0 10.34 4.1094 20.254 11.418 27.566 7.3125 7.3125 17.227 11.418 27.566 11.418h92.062c1.0391 12.496 6.7344 24.145 15.957 32.641 9.2227 8.4961 21.301 13.215 33.84 13.227h322.15c5.8164-0.29297 10.383-5.0977 10.375-10.922v-42.59-7.6445c0.09375-2.4727 0.058594-4.9531-0.10938-7.4258v-119.36c-0.015625-23.516-8.2852-46.281-23.371-64.32l-21.84-25.992h52.855c10.367 0 20.312-4.1172 27.645-11.449s11.449-17.277 11.449-27.645v-128.86c0-10.355-4.1211-20.289-11.457-27.605-7.3359-7.3125-17.281-11.406-27.637-11.379zm-389.86 418.25h-92.062c-4.7578 0.027344-9.3281-1.8477-12.695-5.2148-3.3633-3.3633-5.2422-7.9375-5.2109-12.695v-69.562c-0.03125-4.7695 1.8438-9.3516 5.207-12.734 3.3594-3.3828 7.9336-5.2852 12.699-5.2852h71.531c4.1172 0.003906 8.1445-1.2109 11.574-3.4961l8.5195-5.6797 21.078-13.867 15.727-10.922v12.34l-0.003906 0.003906c-0.027344 5.5977 2.1836 10.977 6.1406 14.934 3.9609 3.9609 9.3359 6.1719 14.938 6.1406h33.746-0.003906c4.875 0 9.543 1.9727 12.938 5.4688 3.3945 3.5 5.2305 8.2227 5.082 13.098v69.562c-0.027344 4.7578-1.9414 9.3164-5.3164 12.672-3.375 3.3555-7.9414 5.2383-12.703 5.2383zm50.016 45.867v-0.003906c-6.9609 0.019531-13.688-2.4844-18.945-7.0391-5.2578-4.5547-8.6914-10.859-9.668-17.75h70.219c8.4648-0.011718 16.695-2.7617 23.469-7.8398 6.7695-5.0781 11.715-12.211 14.098-20.332h104.84c-0.78906 4.3945-1.1914 8.8555-1.2031 13.32-0.14844 13.977 3.6328 27.715 10.922 39.641zm292.77-217.65c11.918 14.242 18.449 32.215 18.457 50.781v119.36c-0.054688 0.76562-0.054688 1.5312 0 2.2969 0.10156 2 0.10156 4.0039 0 6.0039 0.10938 1.8203 0.10938 3.6406 0 5.4609v2.1836 31.996h-90.422c-1.6016-1.457-3.0977-3.0234-4.4766-4.6953-8.4062-9.6992-13.023-22.109-12.996-34.945 0.097656-12.52 4.4922-24.625 12.449-34.289l0.98438-1.3086v-0.003906c3.5234-4.0117 5.3867-9.2148 5.2031-14.555-0.18359-5.3359-2.3945-10.402-6.1875-14.164l-47.395-48.27c-4.0625-3.9844-6.3516-9.4336-6.3516-15.125 0-5.6875 2.2891-11.141 6.3516-15.125 3.7422-3.4531 8.6719-5.332 13.762-5.2422 6.3086 0.023437 12.352 2.5352 16.816 6.9922l63.121 63.121v-0.003906c1.9492 1.9961 4.6328 3.1016 7.4258 3.0586 2.7734-0.039063 5.4297-1.1328 7.4258-3.0586 3.8828-4.1875 3.8828-10.66 0-14.852l-26.863-26.863v-96.102l3.0586-1.9648h6.0078zm65.523-78.629v0.003906c0 4.7773-1.8984 9.3633-5.2773 12.742-3.3789 3.3789-7.9609 5.2773-12.742 5.2773h-86.598c-4.1211-0.019531-8.1523 1.1992-11.574 3.4922l-12.559 8.8477-32.762 21.84v-13.105c0-5.5703-2.207-10.914-6.1367-14.863-3.9258-3.9492-9.2617-6.1836-14.832-6.2109h-1.3086c-4.7812 0-9.3633-1.8984-12.742-5.2773-3.3789-3.3789-5.2773-7.9648-5.2773-12.742v-128.86-0.875 0.003907c0.25-4.5898 2.2422-8.9062 5.5742-12.074 3.3281-3.1641 7.7422-4.9414 12.336-4.9609h165.45c4.7578 0 9.3242 1.8828 12.703 5.2383 3.375 3.3555 5.2852 7.9102 5.3125 12.668z"/>
  <use x="70" y="723.804688" xlink:href="#m"/>
  <use x="110.070313" y="723.804688" xlink:href="#d"/>
  <use x="137" y="723.804688" xlink:href="#c"/>
  <use x="174.03125" y="723.804688" xlink:href="#b"/>
  <use x="210.878906" y="723.804688" xlink:href="#h"/>
  <use x="236.980469" y="723.804688" xlink:href="#c"/>
  <use x="274.011719" y="723.804688" xlink:href="#a"/>
  <use x="332.105469" y="723.804688" xlink:href="#g"/>
  <use x="371.191406" y="723.804688" xlink:href="#f"/>
  <use x="425.792969" y="723.804688" xlink:href="#e"/>
  <use x="467.839844" y="723.804688" xlink:href="#l"/>
  <use x="486.554688" y="723.804688" xlink:href="#k"/>
  <use x="518.921875" y="723.804688" xlink:href="#b"/>
  <use x="555.765625" y="723.804688" xlink:href="#d"/>
  <use x="582.695312" y="723.804688" xlink:href="#a"/>
  <use x="621.78125" y="723.804688" xlink:href="#j"/>
  <use x="678.300781" y="723.804688" xlink:href="#i"/>
 </g>
</svg>
